<svg width="46" height="51" viewBox="0 0 46 51" fill="none" xmlns="http://www.w3.org/2000/svg">
    <path d="M0 49V0H43.5976V49H0Z" transform="translate(1 1)" fill="white"/>
    <path d="M0 0V49M0 0H43.5976M0 0L43.5976 49M0 49H43.5976M0 49L43.5976 0M43.5976 49V0M9.80945 20.5625H7.41159V24.0625H12.2073V20.5625H9.80945ZM9.80945 20.5625V27.5625H15.6951M15.6951 27.5625V20.5625H19.6189V27.5625H15.6951ZM22.6707 20.5625H25.0686M27.4665 20.5625H25.0686M25.0686 20.5625V27.5625H30.9543M30.9543 27.5625V20.5625H34.878V27.5625H30.9543Z" transform="translate(1 1)" stroke="#F1F1F1"/>
</svg>
