<svg width="38" height="20" viewBox="0 0 38 20" fill="none" xmlns="http://www.w3.org/2000/svg">
    <path d="M4.185 2.30769C4.185 3.37937 3.32785 4.24038 2.28 4.24038C1.23215 4.24038 0.375 3.37937 0.375 2.30769C0.375 1.23601 1.23215 0.375 2.28 0.375C3.32785 0.375 4.185 1.23601 4.185 2.30769Z" fill="#959595" stroke="#F4F4F4" stroke-width="0.75"/>
    <rect x="0.375" y="0.375" width="29.25" height="3.86539" rx="1.93269" transform="translate(8)" fill="#959595" stroke="#F4F4F4" stroke-width="0.75"/>
    <path d="M4.185 2.30769C4.185 3.37937 3.32785 4.24038 2.28 4.24038C1.23215 4.24038 0.375 3.37937 0.375 2.30769C0.375 1.23601 1.23215 0.375 2.28 0.375C3.32785 0.375 4.185 1.23601 4.185 2.30769Z" transform="translate(0 7.69231)" fill="#959595" stroke="#F4F4F4" stroke-width="0.75"/>
    <rect x="0.375" y="0.375" width="29.25" height="3.86539" rx="1.93269" transform="translate(8 7.69231)" fill="#959595" stroke="#F4F4F4" stroke-width="0.75"/>
    <path d="M4.185 2.30769C4.185 3.37937 3.32785 4.24038 2.28 4.24038C1.23215 4.24038 0.375 3.37937 0.375 2.30769C0.375 1.23601 1.23215 0.375 2.28 0.375C3.32785 0.375 4.185 1.23601 4.185 2.30769Z" transform="translate(0 15.3846)" fill="#959595" stroke="#F4F4F4" stroke-width="0.75"/>
    <rect x="0.375" y="0.375" width="29.25" height="3.86539" rx="1.93269" transform="translate(8 15.3846)" fill="#959595" stroke="#F4F4F4" stroke-width="0.75"/>
</svg>
